<svg xmlns="http://www.w3.org/2000/svg" viewBox="0 0 512 512">
  <!-- Spy Heart Lock Icon -->
  <defs>
    <linearGradient id="grad1" x1="0%" y1="0%" x2="100%" y2="100%">
      <stop offset="0%" style="stop-color:#7D1219;stop-opacity:1" />
      <stop offset="100%" style="stop-color:#3D0E10;stop-opacity:1" />
    </linearGradient>
  </defs>
  
  <!-- Shackle -->
  <path d="M144 192 V 128 C 144 64 192 16 256 16 C 320 16 368 64 368 128 V 192" 
        fill="none" 
        stroke="#F6F0E6" 
        stroke-width="40" 
        stroke-linecap="round" />
  
  <!-- Heart Body (Lock) -->
  <path d="M256 464 C 256 464 464 336 464 224 C 464 160 416 112 352 112 C 304 112 272 144 256 160 C 240 144 208 112 160 112 C 96 112 48 160 48 224 C 48 336 256 464 256 464 Z" 
        fill="url(#grad1)" 
        stroke="#F6F0E6" 
        stroke-width="10" />
        
  <!-- Keyhole -->
  <circle cx="256" cy="240" r="30" fill="#1E0F0A" />
  <path d="M256 240 L 236 320 L 276 320 Z" fill="#1E0F0A" />
</svg>
