<svg xmlns="http://www.w3.org/2000/svg" viewBox="0 0 800 200">
  <!-- Full Text Logo -->
  <defs>
    <style>
      @import url('https://fonts.googleapis.com/css2?family=Share+Tech+Mono&amp;display=swap');
      text {
        font-family: 'Courier New', monospace;
        font-weight: bold;
        letter-spacing: 4px;
      }
    </style>
  </defs>

  <!-- Icon Part (Left) -->
  <g transform="translate(40, 40) scale(0.25)">
    <path d="M144 192 V 128 C 144 64 192 16 256 16 C 320 16 368 64 368 128 V 192" 
        fill="none" 
        stroke="#F6F0E6" 
        stroke-width="40" 
        stroke-linecap="round" />
    <path d="M256 464 C 256 464 464 336 464 224 C 464 160 416 112 352 112 C 304 112 272 144 256 160 C 240 144 208 112 160 112 C 96 112 48 160 48 224 C 48 336 256 464 256 464 Z" 
        fill="#7D1219" 
        stroke="#F6F0E6" 
        stroke-width="10" />
    <circle cx="256" cy="240" r="30" fill="#1E0F0A" />
    <path d="M256 240 L 236 320 L 276 320 Z" fill="#1E0F0A" />
  </g>

  <!-- Text Part -->
  <text x="180" y="110" fill="#F6F0E6" font-size="60">MISSION</text>
  <text x="460" y="110" fill="#7D1219" font-size="60">VALENTINE</text>
  
  <!-- Underline/Decoration -->
  <line x1="180" y1="130" x2="750" y2="130" stroke="#A32442" stroke-width="4" />
</svg>
